<svg preserveAspectRatio="none" width="100%" height="100%" overflow="visible" style="display: block;" viewBox="0 0 10.9979 5.279" fill="none" xmlns="http://www.w3.org/2000/svg">
<g id="SVG" clip-path="url(#clip0_2138_4306)">
<path id="Vector" d="M8.13842 0.439971H1.09976C0.492358 0.439971 -3.56049e-05 0.932364 -3.56049e-05 1.53976V3.73934C-3.56049e-05 4.34674 0.492358 4.83913 1.09976 4.83913H8.13842C8.74582 4.83913 9.23821 4.34674 9.23821 3.73934V1.53976C9.23821 0.932364 8.74582 0.439971 8.13842 0.439971Z" stroke="var(--stroke-0, #0F0F12)" stroke-width="0.439916"/>
<path id="Vector_2" d="M7.03888 1.09983H1.31996C0.955525 1.09983 0.660089 1.39526 0.660089 1.7597V3.51937C0.660089 3.88381 0.955525 4.17924 1.31996 4.17924H7.03888C7.40332 4.17924 7.69875 3.88381 7.69875 3.51937V1.7597C7.69875 1.39526 7.40332 1.09983 7.03888 1.09983Z" fill="var(--fill-0, #0F0F12)"/>
<path id="Vector_3" d="M9.89795 1.7595V3.51917C10.1313 3.51917 10.3551 3.42647 10.5201 3.26147C10.6851 3.09647 10.7778 2.87268 10.7778 2.63934C10.7778 2.40599 10.6851 2.1822 10.5201 2.0172C10.3551 1.8522 10.1313 1.7595 9.89795 1.7595Z" fill="var(--fill-0, #0F0F12)"/>
</g>
<defs>
<clipPath id="clip0_2138_4306">
<rect width="10.9979" height="5.279" fill="white"/>
</clipPath>
</defs>
</svg>
