<svg preserveAspectRatio="none" width="100%" height="100%" overflow="visible" style="display: block;" viewBox="0 0 9.30838 6.98128" fill="none" xmlns="http://www.w3.org/2000/svg">
<g id="SVG" clip-path="url(#clip0_2138_4153)">
<path id="Vector" d="M4.65391 5.52344C4.76851 5.52344 4.88199 5.54601 4.98786 5.58986C5.09374 5.63372 5.18994 5.698 5.27097 5.77903C5.35201 5.86007 5.41629 5.95627 5.46014 6.06215C5.504 6.16802 5.52657 6.2815 5.52657 6.3961C5.52657 6.5107 5.504 6.62417 5.46014 6.73005C5.41629 6.83593 5.35201 6.93213 5.27097 7.01316C5.18994 7.0942 5.09374 7.15848 4.98786 7.20233C4.88199 7.24619 4.76851 7.26876 4.65391 7.26876C4.42247 7.26876 4.2005 7.17682 4.03685 7.01316C3.87319 6.84951 3.78125 6.62754 3.78125 6.3961C3.78125 6.16465 3.87319 5.94269 4.03685 5.77903C4.2005 5.61538 4.42247 5.52344 4.65391 5.52344Z" fill="var(--fill-0, #0F0F12)"/>
<path id="Vector_2" d="M2.03125 3.78398C2.76283 3.17369 3.6978 2.86203 4.64923 2.91132C5.60066 2.86203 6.53564 3.17369 7.26721 3.78398" stroke="var(--stroke-0, #0F0F12)" stroke-width="0.87266" stroke-linecap="round"/>
<path id="Vector_3" opacity="0.4" d="M0.578125 2.3234C1.12431 1.81968 1.76646 1.43126 2.46618 1.18136C3.1659 0.931459 3.90882 0.825212 4.65054 0.868967C5.39226 0.825212 6.13518 0.931459 6.8349 1.18136C7.53462 1.43126 8.17677 1.81968 8.72296 2.3234" stroke="var(--stroke-0, #0F0F12)" stroke-width="0.87266" stroke-linecap="round"/>
</g>
<defs>
<clipPath id="clip0_2138_4153">
<rect width="9.30838" height="6.98128" fill="white"/>
</clipPath>
</defs>
</svg>
