<svg preserveAspectRatio="none" width="100%" height="100%" overflow="visible" style="display: block;" viewBox="0 0 11.8742 11.8742" fill="none" xmlns="http://www.w3.org/2000/svg">
<g id="famicons:book" clip-path="url(#clip0_2138_4540)">
<path id="Vector" d="M4.6903 1.71619C3.85238 1.31613 2.6812 1.12016 1.1132 1.1132C0.965325 1.11119 0.820349 1.15431 0.697607 1.23682C0.59686 1.30491 0.514389 1.39672 0.45745 1.50417C0.40051 1.61162 0.370847 1.73142 0.371068 1.85302V8.48817C0.371068 8.9367 0.690186 9.27507 1.1132 9.27507C2.76144 9.27507 4.41478 9.42906 5.40506 10.3651C5.41861 10.3779 5.43564 10.3865 5.45403 10.3898C5.47243 10.3931 5.49137 10.3909 5.50852 10.3835C5.52567 10.376 5.54026 10.3638 5.55048 10.3481C5.5607 10.3325 5.5661 10.3142 5.56602 10.2955V2.47734C5.56604 2.4246 5.55475 2.37246 5.53291 2.32445C5.51106 2.27644 5.47917 2.23367 5.43939 2.19904C5.21255 2.00512 4.96058 1.8427 4.6903 1.71619ZM11.1766 1.23612C11.0538 1.15382 10.9088 1.11094 10.761 1.1132C9.19297 1.12016 8.02179 1.3152 7.18387 1.71619C6.9136 1.84247 6.66156 2.00457 6.43455 2.19811C6.39484 2.2328 6.36302 2.27558 6.34122 2.32358C6.31942 2.37158 6.30814 2.42369 6.30815 2.47641V10.295C6.30814 10.313 6.31343 10.3305 6.32336 10.3455C6.33328 10.3605 6.34741 10.3722 6.36395 10.3791C6.3805 10.3861 6.39873 10.388 6.41637 10.3846C6.434 10.3813 6.45025 10.3728 6.46307 10.3602C7.0584 9.76882 8.10319 9.27437 10.7619 9.27461C10.9587 9.27461 11.1475 9.19642 11.2867 9.05724C11.4258 8.91806 11.504 8.7293 11.504 8.53247V1.85325C11.5043 1.73141 11.4746 1.61137 11.4175 1.50374C11.3603 1.39611 11.2776 1.3042 11.1766 1.23612Z" fill="var(--fill-0, white)"/>
</g>
<defs>
<clipPath id="clip0_2138_4540">
<rect width="11.8742" height="11.8742" fill="white"/>
</clipPath>
</defs>
</svg>
